# xmcd
#
# Track frame offsets: 
#        150
#        23630
#        38405
#        59977
#        79739
#        106209
#        123601
#        148539
#        169305
#
# Disc length: 2638 seconds
#
# Revision: 2
# Processed by: cddbd v1.5.2PL0 Copyright (c) Steve Scherf et al.
# Submitted via: ExactAudioCopyFreeDBPlugin 1.0
#
DISCID=770a4c09
DTITLE=Didier Brendle - Brazil
DYEAR=1900
DGENRE=Salsa
TTITLE0=Douvan
TTITLE1=Ti Calypso
TTITLE2=Nouvel Horizon
TTITLE3=Nadia
TTITLE4=Lé Salsa Vini
TTITLE5=L'Argent du Démon
TTITLE6=Graine de Futur
TTITLE7=Pacifik
TTITLE8=Femme de Terres Déchirées
EXTD=
EXTT0=
EXTT1=
EXTT2=
EXTT3=
EXTT4=
EXTT5=
EXTT6=
EXTT7=
EXTT8=
PLAYORDER=
